# xmcd
#
# Track frame offsets:
#	150
#	16647
#	27571
#	40941
#	58183
#	72212
#	89337
#	105025
#	125416
#	146537
#	165656
#	179059
#
# Disc length: 2616 seconds
#
# Revision: 1
# Processed by: cddbd v1.5.2PL0 Copyright (c) Steve Scherf et al.
# Submitted via: EasyCDDAExtractor 12.0.2.1
#
DISCID=9c0a360c
DTITLE=Alan Jackson - Songs Of Love And Heartache
DYEAR=2009
DGENRE=Country
TTITLE0=Here In The Real World
TTITLE1=She's Got The Rhythm (And I Got The Blues)
TTITLE2=Tropical Depression
TTITLE3=Livin' On Love
TTITLE4=You Can't Give Up On Love
TTITLE5=Gone Crazy
TTITLE6=When Somebody Loves You
TTITLE7=Remember When
TTITLE8=Rainy Day In June
TTITLE9=A Woman's Love
TTITLE10=That's What I'd Be Like Without You
TTITLE11=Nothing Sure Looked Good On You
EXTD=
EXTT0=
EXTT1=
EXTT2=
EXTT3=
EXTT4=
EXTT5=
EXTT6=
EXTT7=
EXTT8=
EXTT9=
EXTT10=
EXTT11=
PLAYORDER=
